<svg width="417" height="423" viewBox="0 0 417 423" fill="none" xmlns="http://www.w3.org/2000/svg">
<g opacity="0.2">
<path d="M305.651 80.4208H307.487C322.092 80.9291 335.914 87.1498 345.979 97.7446C356.044 108.339 361.549 122.462 361.308 137.073C361.068 151.685 355.101 165.619 344.693 175.876C334.284 186.134 320.265 191.896 305.651 191.924H249.883V136.206C249.88 128.882 251.32 121.629 254.122 114.862C256.923 108.095 261.031 101.946 266.21 96.7675C271.39 91.5889 277.539 87.482 284.307 84.6815C291.074 81.881 298.327 80.4418 305.651 80.4462V80.4208ZM305.651 60.8867C285.682 60.8867 266.531 68.8194 252.411 82.9398C238.29 97.0602 230.357 116.211 230.357 136.181V207.972C230.357 208.436 230.449 208.894 230.626 209.322C230.803 209.75 231.063 210.139 231.391 210.467C231.718 210.794 232.107 211.054 232.535 211.232C232.963 211.409 233.422 211.5 233.885 211.5H305.677C315.777 211.506 325.774 209.479 335.075 205.541C344.375 201.603 352.789 195.834 359.814 188.578C366.839 181.322 372.332 172.726 375.967 163.303C379.602 153.88 381.303 143.822 380.971 133.727C379.719 94.2783 347.588 62.1557 308.147 60.9036C307.284 60.9121 306.464 60.8613 305.651 60.8613V60.8867Z" fill="#62156F"/>
<path d="M136.206 61.5888H136.375C167.034 61.6819 191.974 87.1972 191.974 118.465V173.117H136.206C128.825 173.208 121.5 171.833 114.654 169.071C107.809 166.309 101.58 162.216 96.3287 157.029C91.0772 151.842 86.9077 145.664 84.062 138.853C81.2163 132.042 79.7509 124.734 79.7509 117.353C79.7509 109.971 81.2163 102.664 84.062 95.8527C86.9077 89.0419 91.0772 82.8638 96.3287 77.6766C101.58 72.4894 107.809 68.3964 114.654 65.6347C121.5 62.8731 128.825 61.4979 136.206 61.5888V61.5888ZM136.206 42.0293C116.23 42.0293 97.0724 49.9647 82.9473 64.0898C68.8221 78.2149 60.8867 97.3727 60.8867 117.349C60.8867 137.325 68.8221 156.482 82.9473 170.608C97.0724 184.733 116.23 192.668 136.206 192.668H207.998C208.933 192.668 209.831 192.296 210.492 191.635C211.154 190.973 211.526 190.076 211.526 189.14V118.44C211.526 76.7491 178.125 42.1308 136.435 42.0039L136.206 42.0293Z" fill="#F49C0F"/>
<path d="M173.117 231.051V286.794C173.12 295.35 171.155 303.791 167.373 311.466C163.591 319.14 158.094 325.842 151.308 331.051C144.521 336.261 136.627 339.84 128.236 341.51C119.845 343.18 111.182 342.898 102.918 340.684C94.6537 338.47 87.0097 334.384 80.5773 328.743C74.1449 323.102 69.0968 316.056 65.8234 308.151C62.5501 300.247 61.1394 291.695 61.7005 283.158C62.2615 274.62 64.7793 266.327 69.059 258.918C71.5049 254.694 74.4911 250.806 77.942 247.353C83.1091 242.161 89.2547 238.044 96.0231 235.241C102.791 232.438 110.048 231.006 117.374 231.026H173.142L173.117 231.051ZM189.14 211.5H117.349C102.457 211.5 87.8996 215.916 75.5176 224.189C63.1356 232.463 53.485 244.222 47.7861 257.98C42.0873 271.738 40.5962 286.878 43.5015 301.483C46.4067 316.089 53.5778 329.505 64.1078 340.035C74.6379 350.565 88.054 357.736 102.66 360.641C117.265 363.546 132.404 362.055 146.162 356.357C159.921 350.658 171.68 341.007 179.953 328.625C188.227 316.243 192.643 301.686 192.643 286.794V215.028C192.643 214.097 192.275 213.203 191.618 212.542C190.962 211.881 190.072 211.507 189.14 211.5V211.5Z" fill="#C91F64"/>
<path d="M286.794 249.883C297.824 249.883 308.606 253.154 317.777 259.282C326.948 265.41 334.096 274.119 338.317 284.31C342.538 294.5 343.643 305.713 341.491 316.531C339.339 327.349 334.028 337.286 326.228 345.086C318.429 352.885 308.492 358.196 297.674 360.348C286.856 362.5 275.643 361.396 265.452 357.175C255.262 352.954 246.552 345.806 240.424 336.635C234.296 327.464 231.026 316.681 231.026 305.651V249.883H286.794ZM286.794 230.332H215.028C214.092 230.332 213.195 230.704 212.533 231.365C211.872 232.027 211.5 232.924 211.5 233.86V305.651C211.5 320.543 215.916 335.1 224.189 347.483C232.463 359.865 244.222 369.515 257.98 375.214C271.738 380.913 286.878 382.404 301.483 379.499C316.089 376.593 329.505 369.422 340.035 358.892C350.565 348.362 357.736 334.946 360.641 320.341C363.546 305.735 362.055 290.596 356.357 276.838C350.658 263.079 341.007 251.32 328.625 243.047C316.243 234.773 301.686 230.357 286.794 230.357V230.332Z" fill="#084F41"/>
</g>
</svg>
