<svg width="32" height="24" viewBox="0 0 32 24" fill="none" xmlns="http://www.w3.org/2000/svg">
<g clip-path="url(#clip0_228_1980)">
<path d="M7.23507 23.8819V11.5822L3.42056 8.09254L0 6.15601V21.7114C0 22.9124 0.973057 23.8819 2.17057 23.8819H7.23507Z" fill="#4285F4"/>
<path d="M24.5991 23.8818H29.6636C30.8647 23.8818 31.8342 22.9086 31.8342 21.7112V6.15601L27.9599 8.37408L24.5991 11.5821V23.8818Z" fill="#34A853"/>
<path d="M7.23511 11.5823L6.71606 6.77643L7.23511 2.17676L15.9171 8.68834L24.5992 2.17676L25.1798 6.52809L24.5992 11.5823L15.9171 18.0939L7.23511 11.5823Z" fill="#EA4335"/>
<path d="M24.5991 2.17662V11.5821L31.8342 6.1559V3.26185C31.8342 0.577703 28.7701 -0.952453 26.6251 0.657288L24.5991 2.17662Z" fill="#FBBC04"/>
<path d="M0 6.15571L3.32754 8.65146L7.23507 11.582V2.17644L5.20912 0.657101C3.06031 -0.952765 0 0.577515 0 3.26154V6.15559V6.15571Z" fill="#C5221F"/>
</g>
<defs>
<clipPath id="clip0_228_1980">
<rect width="31.8342" height="24" fill="white"/>
</clipPath>
</defs>
</svg>
