<svg width="25" height="24" viewBox="0 0 25 24" fill="none" xmlns="http://www.w3.org/2000/svg">
<path d="M12.8342 24C19.4616 24 24.8342 18.6274 24.8342 12C24.8342 5.37258 19.4616 0 12.8342 0C6.20681 0 0.834229 5.37258 0.834229 12C0.834229 18.6274 6.20681 24 12.8342 24Z" fill="#4467AD"/>
<path d="M13.7623 10.3645C13.9596 10.1423 14.1178 9.91648 14.3241 9.72626C14.6166 9.44107 14.963 9.21688 15.3429 9.06672C15.7229 8.91657 16.1289 8.84344 16.5374 8.85159C17.0081 8.84348 17.4777 8.90031 17.9329 9.02048C18.9747 9.3227 19.5792 10.0391 19.8689 11.056C20.061 11.8181 20.1477 12.6029 20.1267 13.3885C20.1267 15.0471 20.1267 16.704 20.1267 18.3663C20.1267 18.5209 20.0841 18.5618 19.9312 18.56C19.0755 18.5529 18.2215 18.5529 17.3694 18.56C17.2183 18.56 17.1916 18.5156 17.1916 18.3823C17.1916 16.8048 17.1916 15.2273 17.1916 13.6498C17.2005 13.2536 17.1538 12.858 17.053 12.4747C16.8485 11.7636 16.3418 11.408 15.6005 11.4454C14.5889 11.4987 14.0609 12.0018 13.9329 13.0311C13.9016 13.2764 13.8861 13.5234 13.8867 13.7707C13.8867 15.3049 13.8867 16.8391 13.8867 18.3734C13.8867 18.5263 13.8476 18.5707 13.6912 18.5689C12.8325 18.5689 11.9721 18.5689 11.1116 18.5689C10.9729 18.5689 10.9338 18.5334 10.9338 18.3911C10.9338 15.3547 10.9338 12.3177 10.9338 9.28004C10.9338 9.12892 10.9818 9.10226 11.1241 9.10226C11.9418 9.10937 12.759 9.10937 13.5756 9.10226C13.725 9.10226 13.7641 9.15026 13.7534 9.29248C13.757 9.63737 13.7623 10 13.7623 10.3645Z" fill="#FEFEFE"/>
<path d="M9.08326 13.8347C9.08326 15.3369 9.08326 16.8391 9.08326 18.3414C9.08326 18.5085 9.04237 18.56 8.86992 18.5582C8.01481 18.5476 7.16148 18.5582 6.30815 18.5582C6.17126 18.5582 6.13037 18.5245 6.13037 18.3805C6.13037 15.3369 6.13037 12.2945 6.13037 9.25336C6.13037 9.12714 6.16237 9.07558 6.2957 9.08447C7.16148 9.08447 8.02726 9.08447 8.89303 9.08447C9.06014 9.08447 9.08148 9.14669 9.08148 9.29069C9.08029 10.8054 9.08089 12.32 9.08326 13.8347Z" fill="#FEFEFE"/>
<path d="M9.31784 6.071C9.3196 6.40872 9.22101 6.73936 9.03459 7.02097C8.84817 7.30258 8.58231 7.52248 8.27074 7.65278C7.95916 7.78307 7.61591 7.8179 7.28452 7.75284C6.95312 7.68777 6.6485 7.52575 6.40932 7.28732C6.17014 7.04889 6.00717 6.74479 5.94106 6.4136C5.87496 6.08241 5.9087 5.73904 6.03802 5.42706C6.16734 5.11508 6.38641 4.84853 6.66744 4.66122C6.94846 4.47392 7.27878 4.3743 7.61651 4.375C8.06609 4.37732 8.49668 4.55659 8.81508 4.87399C9.13349 5.1914 9.31411 5.62142 9.31784 6.071Z" fill="#FEFEFE"/>
</svg>
