<svg width="156" height="59" viewBox="0 0 156 59" fill="none" xmlns="http://www.w3.org/2000/svg">
<path d="M37.075 13.457H37.2965C39.0647 13.5316 40.734 14.2979 41.9484 15.5928C43.1629 16.8876 43.8264 18.6084 43.7975 20.3883C43.7686 22.1682 43.0496 23.8663 41.7938 25.1205C40.5379 26.3748 38.8447 27.0859 37.075 27.1023H30.289V20.2828C30.2882 19.3862 30.4632 18.4982 30.8039 17.6697C31.1446 16.8412 31.6445 16.0884 32.2748 15.4544C32.9051 14.8204 33.6535 14.3177 34.4772 13.9749C35.3008 13.6322 36.1836 13.4562 37.075 13.457ZM37.075 11.0625C35.871 11.0617 34.6787 11.2996 33.5661 11.7627C32.4536 12.2257 31.4428 12.9049 30.5914 13.7612C29.7401 14.6176 29.0649 15.6343 28.6045 16.7534C28.1442 17.8724 27.9076 19.0718 27.9084 20.2828V29.0701C27.9093 29.1844 27.955 29.2937 28.0357 29.3743C28.1163 29.4548 28.2254 29.5 28.339 29.5H37.075C39.4939 29.5241 41.8241 28.5852 43.5575 26.888C45.2909 25.1908 46.2867 22.873 46.3279 20.4402C46.3691 18.0074 45.4523 15.6568 43.7773 13.9013C42.1024 12.1457 39.8053 11.1275 37.387 11.0688L37.075 11.0625Z" fill="white"/>
<path d="M16.4549 11.1535H16.4737C18.2865 11.18 20.0153 11.9268 21.2826 13.231C22.55 14.5351 23.2528 16.2906 23.2378 18.1143V24.7925H16.4549C15.5517 24.812 14.6538 24.6499 13.8137 24.3157C12.9736 23.9815 12.2083 23.482 11.5627 22.8464C10.9171 22.2107 10.4042 21.4519 10.054 20.6142C9.70381 19.7766 9.52343 18.877 9.52343 17.9683C9.52343 17.0596 9.70381 16.1601 10.054 15.3224C10.4042 14.4848 10.9171 13.7259 11.5627 13.0903C12.2083 12.4547 12.9736 11.9551 13.8137 11.6209C14.6538 11.2867 15.5517 11.1246 16.4549 11.1441V11.1535ZM16.4549 8.74957C15.2371 8.72697 14.0271 8.94871 12.8954 9.40185C11.7638 9.85499 10.7333 10.5304 9.86415 11.3887C8.99499 12.247 8.30459 13.2709 7.8333 14.4006C7.362 15.5303 7.11926 16.7432 7.11926 17.9683C7.11926 19.1935 7.362 20.4063 7.8333 21.536C8.30459 22.6657 8.99499 23.6897 9.86415 24.5479C10.7333 25.4062 11.7638 26.0817 12.8954 26.5348C14.0271 26.9879 15.2371 27.2097 16.4549 27.1871H25.1909C25.3051 27.1871 25.4146 27.1414 25.4954 27.0602C25.5761 26.979 25.6215 26.8688 25.6215 26.754V18.1143C25.6215 13.0114 21.5655 8.77468 16.4861 8.75899L16.4549 8.74957Z" fill="white"/>
<path d="M20.9477 31.8945V38.7172C20.9476 39.764 20.7081 40.7969 20.2478 41.7357C19.7874 42.6746 19.1186 43.4944 18.2929 44.1318C17.4672 44.7691 16.5069 45.2068 15.4861 45.4111C14.4654 45.6155 13.4116 45.5809 12.4062 45.3101C11.4009 45.0393 10.471 44.5395 9.68836 43.8494C8.90574 43.1593 8.29141 42.2974 7.89289 41.3303C7.49436 40.3632 7.32232 39.3169 7.39007 38.2723C7.45782 37.2276 7.76355 36.2127 8.2836 35.3059C8.58108 34.7909 8.94282 34.3163 9.36 33.8936C9.98919 33.2587 10.7372 32.7554 11.5608 32.4128C12.3844 32.0702 13.2673 31.8952 14.1586 31.8977H20.9477V31.8945ZM22.8977 29.5H14.1617C12.3486 29.5 10.5762 30.0408 9.06869 31.0541C7.56119 32.0674 6.38629 33.5076 5.69259 35.1926C4.99888 36.8776 4.81754 38.7316 5.17148 40.5203C5.52543 42.3089 6.39877 43.9518 7.68105 45.2412C8.96333 46.5305 10.5969 47.4084 12.3753 47.7639C14.1536 48.1193 15.9968 47.9362 17.6717 47.2379C19.3466 46.5395 20.7781 45.3573 21.7849 43.8406C22.7918 42.3239 23.3289 40.5409 23.3282 38.7172V29.9299C23.3274 29.8156 23.2817 29.7063 23.201 29.6257C23.1204 29.5452 23.0113 29.5 22.8977 29.5Z" fill="white"/>
<path d="M34.7818 34.2074C36.1239 34.2074 37.4359 34.6078 38.5519 35.3578C39.6678 36.1078 40.5376 37.1739 41.0512 38.4211C41.5649 39.6684 41.6992 41.0408 41.4374 42.3649C41.1756 43.689 40.5293 44.9052 39.5802 45.8598C38.6312 46.8144 37.422 47.4645 36.1057 47.7279C34.7893 47.9913 33.4249 47.8561 32.1849 47.3395C30.9449 46.8228 29.8851 45.948 29.1394 44.8255C28.3938 43.703 27.9958 42.3833 27.9958 41.0332V34.2074H34.7818ZM34.7818 31.8129H26.0458C25.9316 31.8129 25.8221 31.8586 25.7413 31.9398C25.6606 32.021 25.6152 32.1312 25.6152 32.246V41.0332C25.6159 42.8561 26.1538 44.6378 27.1611 46.1532C28.1683 47.6685 29.5997 48.8494 31.2741 49.5466C32.9486 50.2437 34.791 50.4258 36.5683 50.0698C38.3456 49.7138 39.9781 48.8357 41.2593 47.5465C42.5405 46.2574 43.413 44.615 43.7663 42.8271C44.1196 41.0393 43.9379 39.1862 43.2443 37.5021C42.5506 35.8181 41.3761 34.3787 39.8693 33.3661C38.3624 32.3534 36.5909 31.8129 34.7787 31.8129H34.7818Z" fill="white"/>
<path d="M75.2325 19.9815H71.6476C71.5511 19.9815 71.4729 20.0602 71.4729 20.1573V41.6421C71.4729 41.7391 71.5511 41.8178 71.6476 41.8178H75.2325C75.329 41.8178 75.4072 41.7391 75.4072 41.6421V20.1573C75.4072 20.0602 75.329 19.9815 75.2325 19.9815Z" fill="white"/>
<path d="M82.056 41.1117C80.7844 40.7632 79.5944 40.1636 78.5554 39.348C78.5256 39.3237 78.5047 39.2903 78.4956 39.2529C78.4866 39.2155 78.4901 39.1761 78.5055 39.1408L79.5319 36.8311C79.5656 36.7564 79.615 36.69 79.6769 36.6365C79.7387 36.5831 79.8115 36.544 79.89 36.5218C79.9685 36.4997 80.0508 36.4951 80.1313 36.5084C80.2117 36.5217 80.2883 36.5526 80.3556 36.5988C81.1747 37.141 82.0611 37.5725 82.992 37.8824C84.2073 38.3111 85.4856 38.5318 86.7735 38.5352C88.3439 38.5352 89.5149 38.282 90.2866 37.7757C90.6389 37.5759 90.932 37.2855 91.136 36.9342C91.3399 36.5829 91.4473 36.1834 91.4472 35.7766C91.4549 35.4938 91.401 35.2128 91.2895 34.9532C91.1779 34.6935 91.0113 34.4615 90.8014 34.2733C90.3221 33.8555 89.7624 33.5414 89.1571 33.3507C88.4936 33.1268 87.5888 32.8737 86.4427 32.5912C85.1185 32.2918 83.8148 31.907 82.5396 31.4395C81.5505 31.0588 80.6697 30.4391 79.975 29.6349C79.2636 28.8148 78.9069 27.708 78.9048 26.3146C78.9009 25.1762 79.2379 24.0629 79.872 23.1198C80.5859 22.0939 81.5811 21.2991 82.7362 20.832C84.2208 20.2255 85.8144 19.9359 87.4162 19.9815C88.6982 19.9814 89.9752 20.1449 91.2163 20.468C92.3198 20.7348 93.3733 21.1788 94.3363 21.7829C94.3714 21.805 94.3973 21.8391 94.4093 21.8789C94.4214 21.9187 94.4187 21.9615 94.4019 21.9995L93.288 24.7392C93.2788 24.7623 93.2648 24.7832 93.2469 24.8003C93.229 24.8175 93.2076 24.8305 93.1841 24.8385C93.1607 24.8466 93.1359 24.8495 93.1113 24.8469C93.0866 24.8444 93.0629 24.8366 93.0415 24.8239C92.1824 24.3347 91.268 23.9511 90.3178 23.6816C89.3671 23.407 88.3835 23.2645 87.3943 23.2579C85.8468 23.2579 84.6955 23.5205 83.9405 24.0456C83.5898 24.2681 83.3018 24.5774 83.104 24.9439C82.9063 25.3104 82.8054 25.7219 82.8111 26.1389C82.8019 26.4173 82.8542 26.6943 82.9642 26.9499C83.0743 27.2055 83.2394 27.4333 83.4475 27.617C83.9275 28.0292 84.4859 28.3389 85.0887 28.5271C85.7532 28.7499 86.6487 29.001 87.8031 29.2866C89.1151 29.579 90.4049 29.965 91.6625 30.4415C92.653 30.8263 93.5369 31.4452 94.2396 32.246C94.9531 33.0557 95.3098 34.1478 95.3098 35.5224C95.3257 36.654 94.9992 37.7638 94.3738 38.7046C93.6523 39.7268 92.6522 40.517 91.494 40.9799C90.0003 41.5851 88.3988 41.8746 86.7891 41.8304C85.1845 41.8306 83.589 41.5884 82.056 41.1117Z" fill="white"/>
<path d="M102.82 28.2007C102.071 28.8577 101.702 29.8212 101.712 31.0911V32.5598H108.95C108.997 32.5598 109.041 32.5784 109.074 32.6113C109.107 32.6443 109.125 32.689 109.125 32.7356V35.0799C109.124 35.126 109.106 35.1699 109.073 35.2021C109.04 35.2344 108.996 35.2525 108.95 35.2525H101.712V41.8178H98.5327V31.0911C98.5327 29.0177 99.1942 27.389 100.517 26.2048C101.84 25.0206 103.662 24.4296 105.983 24.4316C106.902 24.423 107.817 24.5284 108.71 24.7455C109.446 24.9213 110.151 25.2092 110.801 25.5991C110.836 25.6201 110.863 25.6532 110.876 25.6924C110.889 25.7316 110.888 25.7742 110.872 25.8125L110.005 28.0721C109.996 28.0963 109.981 28.1181 109.962 28.1359C109.944 28.1537 109.921 28.167 109.897 28.1749C109.872 28.1827 109.846 28.1849 109.82 28.1812C109.795 28.1775 109.771 28.1681 109.749 28.1537C108.658 27.4962 107.401 27.1693 106.13 27.2122C104.67 27.2185 103.566 27.548 102.82 28.2007Z" fill="white"/>
<path d="M149.258 41.8147C150.221 41.8147 151.002 41.0292 151.002 40.0604C151.002 39.0915 150.221 38.3061 149.258 38.3061C148.294 38.3061 147.514 39.0915 147.514 40.0604C147.514 41.0292 148.294 41.8147 149.258 41.8147Z" fill="white"/>
<path d="M122.051 37.9263L123.449 39.5645C123.476 39.5969 123.492 39.6381 123.492 39.6806C123.492 39.7232 123.476 39.7644 123.449 39.7968C122.878 40.4541 122.156 40.9615 121.346 41.2749C120.247 41.682 119.078 41.8639 117.908 41.81C116.737 41.7561 115.59 41.4675 114.532 40.9611C113.478 40.4235 112.6 39.5909 112.005 38.5634C111.4 37.5068 111.092 36.3051 111.113 35.0862C111.094 33.8787 111.393 32.6878 111.98 31.634C112.541 30.6279 113.37 29.7988 114.373 29.2395C115.431 28.6552 116.623 28.3587 117.83 28.3796C118.991 28.3684 120.136 28.6454 121.165 29.1862C122.156 29.7097 122.981 30.5024 123.546 31.474C124.126 32.4852 124.428 33.6332 124.422 34.8006C124.423 34.8422 124.409 34.8828 124.383 34.915C124.356 34.9472 124.32 34.9689 124.279 34.9763L114.651 36.8593C114.624 36.8644 114.6 36.8754 114.578 36.8916C114.557 36.9077 114.54 36.9286 114.528 36.9525C114.516 36.9764 114.509 37.0028 114.509 37.0296C114.509 37.0565 114.514 37.083 114.526 37.1072C114.824 37.746 115.313 38.2757 115.924 38.623C116.681 39.034 117.532 39.2375 118.391 39.213C119.654 39.2468 120.878 38.7802 121.802 37.9138C121.819 37.8979 121.839 37.8856 121.861 37.8776C121.883 37.8696 121.906 37.866 121.929 37.8672C121.952 37.8684 121.975 37.8742 121.996 37.8844C122.017 37.8945 122.036 37.9088 122.051 37.9263ZM115.106 31.9385C114.413 32.677 114.067 33.6687 114.067 34.9136V34.9355L121.243 33.5484C121.268 33.5437 121.291 33.534 121.311 33.5198C121.331 33.5056 121.349 33.4873 121.362 33.466C121.374 33.4447 121.383 33.421 121.386 33.3962C121.389 33.3715 121.387 33.3464 121.38 33.3225C121.165 32.6238 120.736 32.0111 120.154 31.5713C119.48 31.0695 118.659 30.8098 117.821 30.8338C117.316 30.8146 116.814 30.9031 116.346 31.0935C115.878 31.2839 115.455 31.5719 115.106 31.9385Z" fill="white"/>
<path d="M128.422 41.4004C127.614 41.1966 126.842 40.8696 126.132 40.4307C126.096 40.4063 126.071 40.3694 126.06 40.327C126.05 40.2847 126.056 40.24 126.076 40.2016L127.093 38.1805C127.104 38.1588 127.118 38.1396 127.137 38.1241C127.155 38.1086 127.176 38.0972 127.199 38.0907C127.222 38.0842 127.247 38.0827 127.27 38.0862C127.294 38.0898 127.316 38.0984 127.337 38.1115C127.946 38.4812 128.603 38.7653 129.29 38.9557C130.08 39.1866 130.898 39.306 131.72 39.3103C133.544 39.3103 134.456 38.827 134.456 37.8604C134.459 37.6485 134.392 37.4415 134.267 37.2714C134.141 37.1013 133.963 36.9774 133.761 36.9189C133.034 36.6752 132.286 36.5018 131.527 36.4011C130.638 36.2789 129.76 36.0901 128.9 35.8362C128.226 35.625 127.619 35.2398 127.14 34.719C126.616 34.1018 126.35 33.3043 126.397 32.4939C126.386 31.9045 126.523 31.3216 126.796 30.7998C127.068 30.2779 127.468 29.834 127.957 29.5094C128.997 28.7646 130.393 28.3922 132.144 28.3922C133.05 28.3958 133.952 28.5011 134.834 28.706C135.55 28.8544 136.241 29.1037 136.887 29.4466C136.907 29.4572 136.924 29.4716 136.939 29.489C136.953 29.5065 136.963 29.5266 136.97 29.5482C136.976 29.5699 136.978 29.5926 136.976 29.615C136.973 29.6374 136.966 29.6592 136.956 29.6789L135.942 31.6999C135.931 31.7211 135.916 31.7399 135.898 31.7551C135.88 31.7704 135.86 31.7817 135.837 31.7885C135.814 31.7953 135.791 31.7973 135.767 31.7945C135.744 31.7917 135.722 31.7841 135.701 31.7721C134.604 31.1711 133.372 30.8641 132.123 30.8809C131.419 30.8395 130.717 30.9788 130.082 31.2857C129.878 31.3808 129.705 31.5314 129.582 31.7206C129.459 31.9098 129.391 32.1299 129.386 32.3559C129.381 32.5871 129.45 32.8139 129.584 33.0019C129.718 33.19 129.909 33.3289 130.129 33.3978C130.877 33.6691 131.651 33.8626 132.438 33.9752C133.306 34.1012 134.164 34.29 135.006 34.5401C135.661 34.7475 136.253 35.1202 136.725 35.6228C137.205 36.1312 137.445 36.8499 137.445 37.7851C137.455 38.3721 137.313 38.9517 137.035 39.4678C136.757 39.984 136.351 40.4193 135.857 40.732C134.799 41.4705 133.358 41.8398 131.536 41.8398C130.483 41.8339 129.436 41.6862 128.422 41.4004Z" fill="white"/>
<path d="M146.565 40.9328C146.179 41.2417 145.734 41.4671 145.258 41.595C144.73 41.7451 144.184 41.8201 143.635 41.8178C142.2 41.8178 141.093 41.4402 140.313 40.6849C139.533 39.9296 139.146 38.8323 139.152 37.3928V25.8C139.152 25.7533 139.17 25.7086 139.203 25.6757C139.236 25.6427 139.28 25.6242 139.327 25.6242H142.032C142.078 25.6242 142.123 25.6427 142.155 25.6757C142.188 25.7086 142.207 25.7533 142.207 25.8V28.4455C142.207 28.4921 142.225 28.5368 142.258 28.5698C142.29 28.6028 142.335 28.6213 142.381 28.6213H145.698V31.0692H142.369C142.322 31.0692 142.278 31.0877 142.245 31.1206C142.212 31.1536 142.194 31.1983 142.194 31.2449V37.3112C142.158 37.8427 142.329 38.3674 142.671 38.7737C142.845 38.9468 143.054 39.081 143.283 39.1675C143.512 39.254 143.756 39.2909 144.001 39.2758C144.615 39.2985 145.219 39.1079 145.71 38.736L146.565 40.9328Z" fill="white"/>
<path d="M53.0962 27.0615C52.4231 28.2714 52.0808 29.639 52.104 31.0252C52.0655 32.4362 52.4061 33.8316 53.0899 35.0642C53.704 36.1517 54.613 37.041 55.7107 37.6282C56.8146 38.2087 58.0438 38.5062 59.2894 38.4944C59.5384 38.4955 59.7872 38.484 60.0351 38.4598C60.6726 38.4078 61.3013 38.2771 61.9071 38.0707C62.6929 37.8071 63.4245 37.402 64.0661 36.875C64.0873 36.8583 64.1042 36.8368 64.1156 36.8122C64.127 36.7877 64.1325 36.7608 64.1316 36.7338V34.5589C64.1316 34.5123 64.1132 34.4676 64.0804 34.4347C64.0477 34.4017 64.0032 34.3832 63.9569 34.3832H59.6482C59.6018 34.3832 59.5574 34.3647 59.5246 34.3317C59.4919 34.2988 59.4735 34.2541 59.4735 34.2074V30.8306C59.4743 30.7846 59.493 30.7407 59.5257 30.7084C59.5584 30.6761 59.6024 30.658 59.6482 30.658H67.6759C67.7217 30.658 67.7657 30.6761 67.7984 30.7084C67.8311 30.7407 67.8498 30.7846 67.8507 30.8306V41.6389C67.8507 41.6855 67.8323 41.7302 67.7995 41.7632C67.7667 41.7962 67.7223 41.8147 67.6759 41.8147H64.3188C64.2725 41.8147 64.228 41.7962 64.1953 41.7632C64.1625 41.7302 64.1441 41.6855 64.1441 41.6389V40.9234C64.1435 40.8931 64.1352 40.8635 64.1199 40.8375C64.1046 40.8114 64.0829 40.7897 64.0569 40.7746C64.0308 40.7594 64.0013 40.7513 63.9712 40.751C63.9412 40.7507 63.9115 40.7582 63.8851 40.7728C63.5664 40.9447 63.2359 41.0936 62.8961 41.2184C61.6251 41.6787 60.2813 41.902 58.9306 41.8774C57.0556 41.899 55.2037 41.4595 53.5361 40.597C51.9076 39.7514 50.547 38.4643 49.608 36.8813C48.6304 35.2556 48.1416 33.3183 48.1416 31.0691C48.1117 29.0544 48.6238 27.069 49.6236 25.3229C50.5967 23.6355 52.0201 22.2559 53.7327 21.3404C55.5481 20.3786 57.5747 19.8909 59.6263 19.9219C61.2851 19.8999 62.9325 20.2004 64.4779 20.8069C65.8333 21.3457 67.0487 22.1882 68.0316 23.2705C68.0635 23.3038 68.0812 23.3482 68.0812 23.3944C68.0812 23.4407 68.0635 23.4851 68.0316 23.5184L65.7883 25.7152C65.7563 25.7468 65.7131 25.7645 65.6682 25.7645C65.6233 25.7645 65.5802 25.7468 65.5481 25.7152C64.7943 24.9643 63.8991 24.3724 62.9149 23.9742C61.9307 23.5759 60.8774 23.3794 59.8167 23.396C58.4291 23.3713 57.0581 23.7017 55.8324 24.3563C54.6841 24.9792 53.7352 25.9174 53.0962 27.0615Z" fill="white"/>
</svg>
