<svg id="Asset" xmlns="http://www.w3.org/2000/svg" viewBox="0 0 500 188"><defs><style>.cls-1{fill:#62156f;}.cls-2{fill:#f49c0f;}.cls-3{fill:#c91f64;}.cls-4{fill:#084f41;}.cls-5{fill:#0b111a;}</style></defs><path class="cls-1" d="M118.83,42.88h.71a21.75,21.75,0,0,1-.71,43.48H97.08V64.63a21.73,21.73,0,0,1,21.75-21.75m0-7.63A29.36,29.36,0,0,0,89.45,64.63v28A1.38,1.38,0,0,0,90.83,94h28a29.37,29.37,0,0,0,1-58.73Z"/><path class="cls-2" d="M52.74,35.54h.06A22,22,0,0,1,74.48,57.72V79H52.74a21.75,21.75,0,1,1,0-43.49m0-7.63a29.38,29.38,0,1,0,0,58.75h28a1.38,1.38,0,0,0,1.38-1.38V57.72c0-16.26-13-29.76-29.28-29.81Z"/><path class="cls-3" d="M67.14,101.63v21.74A21.75,21.75,0,1,1,26.55,112.5,22.26,22.26,0,0,1,30,108a21.63,21.63,0,0,1,15.38-6.36H67.14M73.39,94h-28a29.38,29.38,0,1,0,29.38,29.37v-28A1.38,1.38,0,0,0,73.39,94Z"/><path class="cls-4" d="M111.48,109a21.75,21.75,0,1,1-21.75,21.75V109h21.75m0-7.63h-28a1.38,1.38,0,0,0-1.38,1.38v28a29.37,29.37,0,1,0,29.37-29.38Z"/><rect class="cls-5" x="229.08" y="63.67" width="12.61" height="69.58" rx="0.56"/><path class="cls-5" d="M263,131a31.84,31.84,0,0,1-11.22-5.62.56.56,0,0,1-.16-.66l3.29-7.36a1.79,1.79,0,0,1,2.64-.74,35.88,35.88,0,0,0,8.45,4.09,36.91,36.91,0,0,0,12.12,2.08q7.55,0,11.26-2.42a7.31,7.31,0,0,0,3.72-6.37,6.19,6.19,0,0,0-2.07-4.79,14.8,14.8,0,0,0-5.27-2.94q-3.19-1.07-8.7-2.42a101.59,101.59,0,0,1-12.51-3.67,20.68,20.68,0,0,1-8.22-5.75q-3.42-3.92-3.43-10.58A18.06,18.06,0,0,1,256,73.67a20.57,20.57,0,0,1,9.18-7.29,37.07,37.07,0,0,1,15-2.71,48.6,48.6,0,0,1,12.18,1.55,33.85,33.85,0,0,1,10,4.19.55.55,0,0,1,.21.69L299,78.83a.55.55,0,0,1-.79.27,39.46,39.46,0,0,0-8.73-3.64,34.78,34.78,0,0,0-9.37-1.35q-7.44,0-11.07,2.51a7.76,7.76,0,0,0-3.62,6.67A6,6,0,0,0,267.46,88a14.91,14.91,0,0,0,5.26,2.9c2.13.71,5,1.51,8.7,2.42A90.84,90.84,0,0,1,293.79,97a21.21,21.21,0,0,1,8.26,5.75q3.43,3.87,3.43,10.44a17.79,17.79,0,0,1-3,10.14,20.69,20.69,0,0,1-9.23,7.25,37.61,37.61,0,0,1-15.08,2.71A51.34,51.34,0,0,1,263,131Z"/><path class="cls-5" d="M329.55,89.86Q325.95,93,326,99.07v4.68H349.2a.56.56,0,0,1,.56.56v7.47a.56.56,0,0,1-.56.55H326v20.92H315.81V99.07q0-9.91,6.36-15.57t17.52-5.65a35.76,35.76,0,0,1,8.74,1,23.81,23.81,0,0,1,6.7,2.72.55.55,0,0,1,.23.68l-2.78,7.2a.55.55,0,0,1-.82.26,21.19,21.19,0,0,0-11.6-3Q333.14,86.74,329.55,89.86Z"/><circle class="cls-5" cx="478.39" cy="127.65" r="5.59"/><path class="cls-5" d="M391.19,120.85l4.48,5.22a.57.57,0,0,1,0,.74,17.11,17.11,0,0,1-6.74,4.71,28.17,28.17,0,0,1-21.84-1,19.66,19.66,0,0,1-8.1-7.64,21.49,21.49,0,0,1-2.86-11.08,21.83,21.83,0,0,1,2.78-11,19.8,19.8,0,0,1,7.67-7.63,22.23,22.23,0,0,1,11.08-2.74A22.61,22.61,0,0,1,388.35,93a19.17,19.17,0,0,1,7.63,7.29,21,21,0,0,1,2.81,10.6.56.56,0,0,1-.46.56l-30.86,6a.56.56,0,0,0-.4.79,10.85,10.85,0,0,0,4.48,4.83,15.72,15.72,0,0,0,7.91,1.88,15.42,15.42,0,0,0,10.93-4.14A.56.56,0,0,1,391.19,120.85Zm-22.26-19.08q-3.33,3.53-3.33,9.48v.07l23-4.42a.57.57,0,0,0,.44-.72,11.11,11.11,0,0,0-3.93-5.58,12,12,0,0,0-7.48-2.35A11.45,11.45,0,0,0,368.93,101.77Z"/><path class="cls-5" d="M411.61,131.92a26.16,26.16,0,0,1-7.34-3.09.56.56,0,0,1-.18-.73l3.26-6.44a.54.54,0,0,1,.78-.22,25,25,0,0,0,6.26,2.69,28.45,28.45,0,0,0,7.79,1.13q8.77,0,8.77-4.62a3.08,3.08,0,0,0-2.23-3,38.57,38.57,0,0,0-7.16-1.65,57.7,57.7,0,0,1-8.42-1.8,12.93,12.93,0,0,1-5.64-3.56,10,10,0,0,1-2.38-7.09,11.13,11.13,0,0,1,5-9.51q5-3.56,13.42-3.56a39,39,0,0,1,8.62,1,24.86,24.86,0,0,1,6.58,2.36.54.54,0,0,1,.22.74l-3.25,6.44a.55.55,0,0,1-.77.23,23.33,23.33,0,0,0-11.47-2.84,13.31,13.31,0,0,0-6.54,1.29,3.85,3.85,0,0,0-2.23,3.41,3.39,3.39,0,0,0,2.38,3.32,37.29,37.29,0,0,0,7.4,1.84,58.51,58.51,0,0,1,8.23,1.8,12.9,12.9,0,0,1,5.51,3.45c1.54,1.62,2.31,3.91,2.31,6.89a10.89,10.89,0,0,1-5.09,9.39q-5.09,3.53-13.85,3.53A37.76,37.76,0,0,1,411.61,131.92Z"/><path class="cls-5" d="M469.76,130.43a11.48,11.48,0,0,1-4.19,2.11,18.82,18.82,0,0,1-5.2.71q-6.9,0-10.65-3.61T446,119.15V82.21a.56.56,0,0,1,.56-.56h8.67a.56.56,0,0,1,.56.56v8.43a.56.56,0,0,0,.56.56h10.63V99H456.31a.56.56,0,0,0-.56.56v19.33a6.51,6.51,0,0,0,1.53,4.66,5.57,5.57,0,0,0,4.26,1.6,8.59,8.59,0,0,0,5.48-1.72Z"/><path class="cls-5" d="M170.18,86.23A25,25,0,0,0,167,98.86a25,25,0,0,0,3.16,12.87,21,21,0,0,0,8.4,8.17,24.26,24.26,0,0,0,11.47,2.76,23.62,23.62,0,0,0,2.39-.11,25,25,0,0,0,6-1.24,21.89,21.89,0,0,0,6.92-3.81.55.55,0,0,0,.21-.45v-6.93a.56.56,0,0,0-.56-.56H191.18a.56.56,0,0,1-.56-.56V98.24a.56.56,0,0,1,.56-.55h25.73a.56.56,0,0,1,.56.55v34.44a.56.56,0,0,1-.56.56H206.15a.56.56,0,0,1-.56-.56V130.4a.56.56,0,0,0-.83-.48,24.47,24.47,0,0,1-3.17,1.42,35.62,35.62,0,0,1-12.71,2.1,36.89,36.89,0,0,1-17.29-4.08A31.47,31.47,0,0,1,159,117.52Q154.3,109.75,154.3,99a35.62,35.62,0,0,1,4.75-18.31A33.28,33.28,0,0,1,172.22,68a39.27,39.27,0,0,1,18.89-4.52,41.28,41.28,0,0,1,15.55,2.82,30.72,30.72,0,0,1,11.39,7.85.57.57,0,0,1,0,.79l-7.19,7a.55.55,0,0,1-.77,0,25.54,25.54,0,0,0-18.37-7.39,26.24,26.24,0,0,0-12.77,3.06A22.08,22.08,0,0,0,170.18,86.23Z"/></svg>