<svg width="25" height="24" viewBox="0 0 25 24" fill="none" xmlns="http://www.w3.org/2000/svg">
<path d="M12.8342 24C19.4616 24 24.8342 18.6274 24.8342 12C24.8342 5.37258 19.4616 0 12.8342 0C6.2068 0 0.834229 5.37258 0.834229 12C0.834229 18.6274 6.2068 24 12.8342 24Z" fill="#5A99EC"/>
<path d="M10.4092 18.91C16.2759 18.91 19.4759 14.0549 19.4759 9.84336C19.4759 9.70647 19.4759 9.56958 19.4759 9.43269C20.0992 8.98131 20.6374 8.42269 21.0652 7.78291C20.4835 8.03944 19.867 8.20838 19.2359 8.28425C19.9011 7.88558 20.3989 7.25888 20.6368 6.52069C20.0116 6.89239 19.3273 7.15397 18.6136 7.29402C18.1764 6.82841 17.6093 6.50491 16.986 6.36546C16.3626 6.22602 15.7118 6.27706 15.1178 6.51197C14.5238 6.74688 14.0141 7.15482 13.6548 7.6829C13.2954 8.21098 13.103 8.83483 13.1025 9.47358C13.1015 9.7183 13.129 9.96231 13.1843 10.2007C11.9174 10.1372 10.678 9.80791 9.54663 9.23425C8.41524 8.6606 7.41715 7.85539 6.6172 6.87091C6.20925 7.57239 6.0842 8.40304 6.26753 9.19354C6.45087 9.98403 6.92879 10.6748 7.60386 11.1251C7.09777 11.1097 6.60276 10.9731 6.16031 10.7269C6.15938 10.7405 6.15938 10.7542 6.16031 10.7678C6.16052 11.5035 6.4152 12.2165 6.88115 12.7858C7.3471 13.3551 7.99564 13.7457 8.71676 13.8914C8.24776 14.0187 7.75591 14.0375 7.27854 13.9465C7.48331 14.5788 7.87988 15.1316 8.41318 15.5282C8.94649 15.9249 9.59005 16.1456 10.2545 16.1598C9.12553 17.045 7.73186 17.5252 6.2972 17.5234C6.0435 17.5238 5.79 17.509 5.53809 17.4789C6.99493 18.4146 8.69021 18.9114 10.4216 18.91" fill="white"/>
</svg>
