<svg width="25" height="24" viewBox="0 0 25 24" fill="none" xmlns="http://www.w3.org/2000/svg">
<path d="M12.8342 24C19.4616 24 24.8342 18.6274 24.8342 12C24.8342 5.37258 19.4616 0 12.8342 0C6.20681 0 0.834229 5.37258 0.834229 12C0.834229 18.6274 6.20681 24 12.8342 24Z" fill="#DA0000"/>
<path d="M20.5 8.1492C20.4089 7.80806 20.2294 7.49697 19.9797 7.24729C19.73 6.9976 19.4189 6.81813 19.0778 6.72698C17.8369 6.40698 12.8343 6.40698 12.8343 6.40698C12.8343 6.40698 7.83159 6.40698 6.58359 6.74121C6.24245 6.83236 5.93136 7.01182 5.68167 7.26151C5.43199 7.51119 5.25252 7.82228 5.16137 8.16343C4.82715 9.40787 4.82715 12.0141 4.82715 12.0141C4.82715 12.0141 4.82715 14.6185 5.16137 15.8665C5.25339 16.2063 5.43329 16.5158 5.68296 16.7639C5.93264 17.012 6.24327 17.19 6.58359 17.2799C7.83159 17.607 12.8343 17.607 12.8343 17.607C12.8343 17.607 17.8369 17.607 19.0849 17.2728C19.4252 17.1829 19.7359 17.0049 19.9855 16.7568C20.2352 16.5087 20.4151 16.1992 20.5071 15.8594C20.8414 14.615 20.8414 12.007 20.8414 12.007C20.8414 12.007 20.8342 9.3972 20.5 8.1492ZM11.2343 14.407V9.60698L15.3907 12.007L11.2343 14.407Z" fill="white"/>
</svg>
